<svg width="535" height="47" viewBox="0 0 535 47" fill="none" xmlns="http://www.w3.org/2000/svg">
<path d="M511.5 46C523.926 46 534 35.9264 534 23.5C534 11.0736 523.926 1 511.5 1C499.074 1 489 11.0736 489 23.5C489 35.9264 499.074 46 511.5 46Z" stroke="#AEAEAE" stroke-width="0.2" stroke-miterlimit="10"/>
<path d="M511.5 41.4999C523.926 41.4999 534 33.441 534 23.4999C534 13.5588 523.926 5.49988 511.5 5.49988C499.074 5.49988 489 13.5588 489 23.4999C489 33.441 499.074 41.4999 511.5 41.4999Z" stroke="#AEAEAE" stroke-width="0.2" stroke-miterlimit="10"/>
<path d="M511.5 37C523.926 37 534 30.9558 534 23.5C534 16.0442 523.926 10 511.5 10C499.074 10 489 16.0442 489 23.5C489 30.9558 499.074 37 511.5 37Z" stroke="#AEAEAE" stroke-width="0.2" stroke-miterlimit="10"/>
<path d="M511.5 32.5C523.926 32.5 534 28.4706 534 23.5C534 18.5294 523.926 14.5 511.5 14.5C499.074 14.5 489 18.5294 489 23.5C489 28.4706 499.074 32.5 511.5 32.5Z" stroke="#AEAEAE" stroke-width="0.2" stroke-miterlimit="10"/>
<path d="M511.5 28.0001C523.926 28.0001 534 25.9854 534 23.5001C534 21.0148 523.926 19.0001 511.5 19.0001C499.074 19.0001 489 21.0148 489 23.5001C489 25.9854 499.074 28.0001 511.5 28.0001Z" stroke="#AEAEAE" stroke-width="0.2" stroke-miterlimit="10"/>
<path d="M489 23.5H534" stroke="#AEAEAE" stroke-width="0.2" stroke-miterlimit="10"/>
<path d="M511.5 46C523.926 46 534 35.9264 534 23.5C534 11.0736 523.926 1 511.5 1C499.074 1 489 11.0736 489 23.5C489 35.9264 499.074 46 511.5 46Z" stroke="#AEAEAE" stroke-width="0.2" stroke-miterlimit="10"/>
<path d="M511.5 46C521.441 46 529.5 35.9264 529.5 23.5C529.5 11.0736 521.441 1 511.5 1C501.559 1 493.5 11.0736 493.5 23.5C493.5 35.9264 501.559 46 511.5 46Z" stroke="#AEAEAE" stroke-width="0.2" stroke-miterlimit="10"/>
<path d="M511.5 46C518.956 46 525 35.9264 525 23.5C525 11.0736 518.956 1 511.5 1C504.044 1 498 11.0736 498 23.5C498 35.9264 504.044 46 511.5 46Z" stroke="#AEAEAE" stroke-width="0.2" stroke-miterlimit="10"/>
<path d="M511.5 46C516.471 46 520.5 35.9264 520.5 23.5C520.5 11.0736 516.471 1 511.5 1C506.529 1 502.5 11.0736 502.5 23.5C502.5 35.9264 506.529 46 511.5 46Z" stroke="#AEAEAE" stroke-width="0.2" stroke-miterlimit="10"/>
<path d="M511.5 46C513.985 46 516 35.9264 516 23.5C516 11.0736 513.985 1 511.5 1C509.015 1 507 11.0736 507 23.5C507 35.9264 509.015 46 511.5 46Z" stroke="#AEAEAE" stroke-width="0.2" stroke-miterlimit="10"/>
<path d="M511.5 46V1" stroke="#AEAEAE" stroke-width="0.2" stroke-miterlimit="10"/>
<path d="M511.5 46C523.926 46 534 35.9264 534 23.5C534 11.0736 523.926 1 511.5 1C499.074 1 489 11.0736 489 23.5C489 35.9264 499.074 46 511.5 46Z" stroke="#AEAEAE" stroke-width="0.2" stroke-miterlimit="10"/>
<path d="M511.5 46C521.441 46 529.5 35.9264 529.5 23.5C529.5 11.0736 521.441 1 511.5 1C501.559 1 493.5 11.0736 493.5 23.5C493.5 35.9264 501.559 46 511.5 46Z" stroke="#AEAEAE" stroke-width="0.2" stroke-miterlimit="10"/>
<path d="M511.5 46C518.956 46 525 35.9264 525 23.5C525 11.0736 518.956 1 511.5 1C504.044 1 498 11.0736 498 23.5C498 35.9264 504.044 46 511.5 46Z" stroke="#AEAEAE" stroke-width="0.2" stroke-miterlimit="10"/>
<path d="M511.5 46C516.471 46 520.5 35.9264 520.5 23.5C520.5 11.0736 516.471 1 511.5 1C506.529 1 502.5 11.0736 502.5 23.5C502.5 35.9264 506.529 46 511.5 46Z" stroke="#AEAEAE" stroke-width="0.2" stroke-miterlimit="10"/>
<path d="M511.5 46C513.985 46 516 35.9264 516 23.5C516 11.0736 513.985 1 511.5 1C509.015 1 507 11.0736 507 23.5C507 35.9264 509.015 46 511.5 46Z" stroke="#AEAEAE" stroke-width="0.2" stroke-miterlimit="10"/>
<path d="M511.5 46V1" stroke="#AEAEAE" stroke-width="0.2" stroke-miterlimit="10"/>
<path d="M5.53125 16.168C4.32325 16.168 3.35125 15.752 2.61525 14.92C1.87925 14.088 1.51125 13.016 1.51125 11.704C1.51125 10.408 1.87525 9.34 2.60325 8.5C3.33925 7.652 4.33125 7.228 5.57925 7.228C6.55525 7.228 7.34325 7.48 7.94325 7.984C8.54325 8.488 8.90325 9.148 9.02325 9.964H7.96725C7.86325 9.42 7.59925 8.984 7.17525 8.656C6.75925 8.328 6.21925 8.164 5.55525 8.164C4.63525 8.164 3.91525 8.496 3.39525 9.16C2.87525 9.816 2.61525 10.664 2.61525 11.704C2.61525 12.76 2.88325 13.612 3.41925 14.26C3.96325 14.9 4.67925 15.22 5.56725 15.22C6.33525 15.22 6.92725 14.996 7.34325 14.548C7.76725 14.1 8.00725 13.536 8.06325 12.856H9.13125C9.12325 13.28 9.02325 13.716 8.83125 14.164C8.64725 14.604 8.40325 14.972 8.09925 15.268C7.48325 15.868 6.62725 16.168 5.53125 16.168ZM10.3431 16V7.42H14.3511C15.1031 7.42 15.7111 7.636 16.1751 8.068C16.6471 8.5 16.8831 9.068 16.8831 9.772C16.8831 10.868 16.3871 11.576 15.3951 11.896V11.932C15.8191 12.084 16.1191 12.324 16.2951 12.652C16.4791 12.972 16.5911 13.46 16.6311 14.116C16.7111 15.212 16.8431 15.824 17.0271 15.952V16H15.8631C15.7751 15.928 15.7111 15.776 15.6711 15.544C15.6391 15.312 15.5991 14.824 15.5511 14.08C15.5111 13.456 15.3551 13.016 15.0831 12.76C14.8191 12.504 14.3951 12.376 13.8111 12.376H11.4231V16H10.3431ZM11.4231 8.356V11.5H13.9671C14.5591 11.5 15.0071 11.364 15.3111 11.092C15.6151 10.812 15.7671 10.424 15.7671 9.928C15.7671 9.392 15.6311 8.996 15.3591 8.74C15.0871 8.484 14.6431 8.356 14.0271 8.356H11.4231ZM18.1946 16V7.42H24.2546V8.368H19.2746V11.08H23.7986V11.992H19.2746V15.004H24.3986V16H18.1946ZM25.0927 16L28.2487 7.42H29.4607L32.6287 16H31.4527L30.5407 13.384H27.1207L26.1967 16H25.0927ZM28.4527 9.628L27.4327 12.508H30.2407L29.2567 9.628L28.8727 8.416H28.8487C28.6967 8.896 28.5647 9.3 28.4527 9.628ZM31.9398 8.368V7.42H38.7318V8.368H35.8758V16H34.7958V8.368H31.9398ZM24.136 30V21.42H30.196V22.368H25.216V25.08H29.74V25.992H25.216V29.004H30.34V30H24.136ZM31.6009 30V21.42H34.7209C35.9769 21.42 36.9249 21.808 37.5649 22.584C38.2049 23.36 38.5249 24.412 38.5249 25.74C38.5249 27.06 38.1929 28.1 37.5289 28.86C36.8649 29.62 35.9009 30 34.6369 30H31.6009ZM32.6809 29.052H34.6009C36.4809 29.052 37.4209 27.948 37.4209 25.74C37.4209 23.484 36.5089 22.356 34.6849 22.356H32.6809V29.052Z" fill="#AEAEAE"/>
<path d="M77.886 27V18.42H83.706V19.368H78.966V22.044H82.914V22.956H78.966V27H77.886ZM91.5132 25.92C90.7532 26.76 89.7372 27.18 88.4652 27.18C87.1932 27.18 86.1732 26.76 85.4052 25.92C84.6452 25.08 84.2652 24.008 84.2652 22.704C84.2652 21.4 84.6452 20.328 85.4052 19.488C86.1732 18.648 87.1932 18.228 88.4652 18.228C89.7372 18.228 90.7532 18.648 91.5132 19.488C92.2812 20.328 92.6652 21.4 92.6652 22.704C92.6652 24.008 92.2812 25.08 91.5132 25.92ZM86.1852 25.248C86.7292 25.904 87.4892 26.232 88.4652 26.232C89.4412 26.232 90.2012 25.904 90.7452 25.248C91.2892 24.592 91.5612 23.744 91.5612 22.704C91.5612 21.664 91.2892 20.816 90.7452 20.16C90.2012 19.496 89.4412 19.164 88.4652 19.164C87.4892 19.164 86.7292 19.496 86.1852 20.16C85.6412 20.816 85.3692 21.664 85.3692 22.704C85.3692 23.744 85.6412 24.592 86.1852 25.248ZM93.9524 27V18.42H97.9604C98.7124 18.42 99.3204 18.636 99.7844 19.068C100.256 19.5 100.492 20.068 100.492 20.772C100.492 21.868 99.9964 22.576 99.0044 22.896V22.932C99.4284 23.084 99.7284 23.324 99.9044 23.652C100.088 23.972 100.2 24.46 100.24 25.116C100.32 26.212 100.452 26.824 100.636 26.952V27H99.4724C99.3844 26.928 99.3204 26.776 99.2804 26.544C99.2484 26.312 99.2084 25.824 99.1604 25.08C99.1204 24.456 98.9644 24.016 98.6924 23.76C98.4284 23.504 98.0044 23.376 97.4204 23.376H95.0324V27H93.9524ZM95.0324 19.356V22.5H97.5764C98.1684 22.5 98.6164 22.364 98.9204 22.092C99.2244 21.812 99.3764 21.424 99.3764 20.928C99.3764 20.392 99.2404 19.996 98.9684 19.74C98.6964 19.484 98.2524 19.356 97.6364 19.356H95.0324ZM40.304 41V32.42H46.364V33.368H41.384V36.08H45.908V36.992H41.384V40.004H46.508V41H40.304ZM47.7688 41V32.42H49.1488L51.9328 39.548H51.9568L54.7168 32.42H56.1208V41H55.0888V33.944H55.0648C54.9128 34.392 54.7848 34.752 54.6808 35.024L52.3288 41H51.5008L49.1488 35.024L48.7648 33.944H48.7408V41H47.7688ZM64.6538 39.92C63.8938 40.76 62.8778 41.18 61.6058 41.18C60.3338 41.18 59.3138 40.76 58.5458 39.92C57.7858 39.08 57.4058 38.008 57.4058 36.704C57.4058 35.4 57.7858 34.328 58.5458 33.488C59.3138 32.648 60.3338 32.228 61.6058 32.228C62.8778 32.228 63.8938 32.648 64.6538 33.488C65.4218 34.328 65.8058 35.4 65.8058 36.704C65.8058 38.008 65.4218 39.08 64.6538 39.92ZM59.3258 39.248C59.8698 39.904 60.6298 40.232 61.6058 40.232C62.5818 40.232 63.3418 39.904 63.8858 39.248C64.4298 38.592 64.7018 37.744 64.7018 36.704C64.7018 35.664 64.4298 34.816 63.8858 34.16C63.3418 33.496 62.5818 33.164 61.6058 33.164C60.6298 33.164 59.8698 33.496 59.3258 34.16C58.7818 34.816 58.5098 35.664 58.5098 36.704C58.5098 37.744 58.7818 38.592 59.3258 39.248ZM66.014 33.368V32.42H72.806V33.368H69.95V41H68.87V33.368H66.014ZM73.9022 41V32.42H74.9822V41H73.9022ZM83.5327 39.92C82.7727 40.76 81.7567 41.18 80.4847 41.18C79.2127 41.18 78.1927 40.76 77.4247 39.92C76.6647 39.08 76.2847 38.008 76.2847 36.704C76.2847 35.4 76.6647 34.328 77.4247 33.488C78.1927 32.648 79.2127 32.228 80.4847 32.228C81.7567 32.228 82.7727 32.648 83.5327 33.488C84.3007 34.328 84.6847 35.4 84.6847 36.704C84.6847 38.008 84.3007 39.08 83.5327 39.92ZM78.2047 39.248C78.7487 39.904 79.5087 40.232 80.4847 40.232C81.4607 40.232 82.2207 39.904 82.7647 39.248C83.3087 38.592 83.5807 37.744 83.5807 36.704C83.5807 35.664 83.3087 34.816 82.7647 34.16C82.2207 33.496 81.4607 33.164 80.4847 33.164C79.5087 33.164 78.7487 33.496 78.2047 34.16C77.6607 34.816 77.3887 35.664 77.3887 36.704C77.3887 37.744 77.6607 38.592 78.2047 39.248ZM85.972 41V32.42H87.112L91.024 38.384L91.648 39.488H91.672V32.42H92.68V41H91.576L87.64 35.024L87.004 33.956H86.98V41H85.972ZM97.4123 41.168C96.2603 41.168 95.3723 40.884 94.7483 40.316C94.1323 39.748 93.8003 39.008 93.7523 38.096H94.8083C94.9523 39.568 95.8363 40.304 97.4603 40.304C98.0763 40.304 98.5683 40.168 98.9363 39.896C99.3123 39.616 99.5003 39.216 99.5003 38.696C99.5003 38.464 99.4563 38.26 99.3683 38.084C99.2803 37.908 99.1723 37.764 99.0443 37.652C98.9243 37.54 98.7403 37.436 98.4923 37.34C98.2443 37.244 98.0123 37.168 97.7963 37.112C97.5883 37.056 97.3003 36.988 96.9323 36.908C96.4923 36.812 96.1283 36.716 95.8403 36.62C95.5523 36.516 95.2643 36.376 94.9763 36.2C94.6883 36.024 94.4723 35.8 94.3283 35.528C94.1923 35.248 94.1243 34.912 94.1243 34.52C94.1243 33.816 94.3883 33.264 94.9163 32.864C95.4523 32.456 96.1603 32.252 97.0403 32.252C98.9683 32.252 100.052 33.144 100.292 34.928H99.2723C99.1923 34.32 98.9643 33.864 98.5883 33.56C98.2123 33.248 97.7043 33.092 97.0643 33.092C96.4723 33.092 96.0003 33.212 95.6483 33.452C95.3043 33.692 95.1323 34.032 95.1323 34.472C95.1323 34.664 95.1683 34.836 95.2403 34.988C95.3203 35.132 95.4203 35.256 95.5403 35.36C95.6683 35.456 95.8323 35.544 96.0323 35.624C96.2403 35.704 96.4443 35.772 96.6443 35.828C96.8443 35.876 97.0883 35.928 97.3763 35.984C97.7763 36.064 98.1043 36.14 98.3603 36.212C98.6163 36.276 98.9003 36.376 99.2123 36.512C99.5243 36.648 99.7643 36.804 99.9323 36.98C100.108 37.156 100.256 37.388 100.376 37.676C100.504 37.956 100.568 38.284 100.568 38.66C100.568 39.444 100.276 40.06 99.6923 40.508C99.1163 40.948 98.3563 41.168 97.4123 41.168Z" fill="#AEAEAE"/>
</svg>
