<svg width="103" height="39" viewBox="0 0 103 39" fill="none" xmlns="http://www.w3.org/2000/svg">
<path d="M7.53125 11.168C6.32325 11.168 5.35125 10.752 4.61525 9.92C3.87925 9.088 3.51125 8.016 3.51125 6.704C3.51125 5.408 3.87525 4.34 4.60325 3.5C5.33925 2.652 6.33125 2.228 7.57925 2.228C8.55525 2.228 9.34325 2.48 9.94325 2.984C10.5433 3.488 10.9033 4.148 11.0233 4.964H9.96725C9.86325 4.42 9.59925 3.984 9.17525 3.656C8.75925 3.328 8.21925 3.164 7.55525 3.164C6.63525 3.164 5.91525 3.496 5.39525 4.16C4.87525 4.816 4.61525 5.664 4.61525 6.704C4.61525 7.76 4.88325 8.612 5.41925 9.26C5.96325 9.9 6.67925 10.22 7.56725 10.22C8.33525 10.22 8.92725 9.996 9.34325 9.548C9.76725 9.1 10.0073 8.536 10.0633 7.856H11.1313C11.1233 8.28 11.0233 8.716 10.8313 9.164C10.6473 9.604 10.4033 9.972 10.0993 10.268C9.48325 10.868 8.62725 11.168 7.53125 11.168ZM12.3431 11V2.42H16.3511C17.1031 2.42 17.7111 2.636 18.1751 3.068C18.6471 3.5 18.8831 4.068 18.8831 4.772C18.8831 5.868 18.3871 6.576 17.3951 6.896V6.932C17.8191 7.084 18.1191 7.324 18.2951 7.652C18.4791 7.972 18.5911 8.46 18.6311 9.116C18.7111 10.212 18.8431 10.824 19.0271 10.952V11H17.8631C17.7751 10.928 17.7111 10.776 17.6711 10.544C17.6391 10.312 17.5991 9.824 17.5511 9.08C17.5111 8.456 17.3551 8.016 17.0831 7.76C16.8191 7.504 16.3951 7.376 15.8111 7.376H13.4231V11H12.3431ZM13.4231 3.356V6.5H15.9671C16.5591 6.5 17.0071 6.364 17.3111 6.092C17.6151 5.812 17.7671 5.424 17.7671 4.928C17.7671 4.392 17.6311 3.996 17.3591 3.74C17.0871 3.484 16.6431 3.356 16.0271 3.356H13.4231ZM20.1946 11V2.42H26.2546V3.368H21.2746V6.08H25.7986V6.992H21.2746V10.004H26.3986V11H20.1946ZM27.0927 11L30.2487 2.42H31.4607L34.6287 11H33.4527L32.5407 8.384H29.1207L28.1967 11H27.0927ZM30.4527 4.628L29.4327 7.508H32.2407L31.2567 4.628L30.8727 3.416H30.8487C30.6967 3.896 30.5647 4.3 30.4527 4.628ZM33.9398 3.368V2.42H40.7318V3.368H37.8758V11H36.7958V3.368H33.9398ZM21.871 25V16.42H22.951V25H21.871ZM24.5774 25V16.42H25.7174L29.6294 22.384L30.2534 23.488H30.2774V16.42H31.2854V25H30.1814L26.2454 19.024L25.6094 17.956H25.5854V25H24.5774ZM39.6178 25L39.3058 23.872H39.2818C38.6578 24.744 37.7658 25.18 36.6058 25.18C35.4058 25.18 34.4338 24.768 33.6898 23.944C32.9458 23.12 32.5738 22.052 32.5738 20.74C32.5738 19.428 32.9338 18.352 33.6538 17.512C34.3818 16.664 35.3978 16.24 36.7018 16.24C37.6778 16.24 38.4658 16.488 39.0658 16.984C39.6738 17.472 40.0498 18.144 40.1938 19H39.0778C38.9578 18.416 38.6938 17.968 38.2858 17.656C37.8778 17.336 37.3418 17.176 36.6778 17.176C35.6858 17.176 34.9378 17.504 34.4338 18.16C33.9298 18.816 33.6777 19.676 33.6777 20.74C33.6777 21.788 33.9538 22.636 34.5058 23.284C35.0578 23.924 35.7698 24.244 36.6418 24.244C37.4818 24.244 38.1218 23.996 38.5618 23.5C39.0098 23.004 39.2338 22.372 39.2338 21.604V21.4H36.6538V20.464H40.3138V25H39.6178Z" fill="black"/>
<path d="M79.886 22V13.42H85.706V14.368H80.966V17.044H84.914V17.956H80.966V22H79.886ZM93.5132 20.92C92.7532 21.76 91.7372 22.18 90.4652 22.18C89.1932 22.18 88.1732 21.76 87.4052 20.92C86.6452 20.08 86.2652 19.008 86.2652 17.704C86.2652 16.4 86.6452 15.328 87.4052 14.488C88.1732 13.648 89.1932 13.228 90.4652 13.228C91.7372 13.228 92.7532 13.648 93.5132 14.488C94.2812 15.328 94.6652 16.4 94.6652 17.704C94.6652 19.008 94.2812 20.08 93.5132 20.92ZM88.1852 20.248C88.7292 20.904 89.4892 21.232 90.4652 21.232C91.4412 21.232 92.2012 20.904 92.7452 20.248C93.2892 19.592 93.5612 18.744 93.5612 17.704C93.5612 16.664 93.2892 15.816 92.7452 15.16C92.2012 14.496 91.4412 14.164 90.4652 14.164C89.4892 14.164 88.7292 14.496 88.1852 15.16C87.6412 15.816 87.3692 16.664 87.3692 17.704C87.3692 18.744 87.6412 19.592 88.1852 20.248ZM95.9524 22V13.42H99.9604C100.712 13.42 101.32 13.636 101.784 14.068C102.256 14.5 102.492 15.068 102.492 15.772C102.492 16.868 101.996 17.576 101.004 17.896V17.932C101.428 18.084 101.728 18.324 101.904 18.652C102.088 18.972 102.2 19.46 102.24 20.116C102.32 21.212 102.452 21.824 102.636 21.952V22H101.472C101.384 21.928 101.32 21.776 101.28 21.544C101.248 21.312 101.208 20.824 101.16 20.08C101.12 19.456 100.964 19.016 100.692 18.76C100.428 18.504 100.004 18.376 99.4204 18.376H97.0324V22H95.9524ZM97.0324 14.356V17.5H99.5764C100.168 17.5 100.616 17.364 100.92 17.092C101.224 16.812 101.376 16.424 101.376 15.928C101.376 15.392 101.24 14.996 100.968 14.74C100.696 14.484 100.252 14.356 99.6364 14.356H97.0324ZM42.304 36V27.42H48.364V28.368H43.384V31.08H47.908V31.992H43.384V35.004H48.508V36H42.304ZM49.7688 36V27.42H51.1488L53.9328 34.548H53.9568L56.7168 27.42H58.1208V36H57.0888V28.944H57.0648C56.9128 29.392 56.7848 29.752 56.6808 30.024L54.3288 36H53.5008L51.1488 30.024L50.7648 28.944H50.7408V36H49.7688ZM66.6538 34.92C65.8938 35.76 64.8778 36.18 63.6058 36.18C62.3338 36.18 61.3138 35.76 60.5458 34.92C59.7858 34.08 59.4058 33.008 59.4058 31.704C59.4058 30.4 59.7858 29.328 60.5458 28.488C61.3138 27.648 62.3338 27.228 63.6058 27.228C64.8778 27.228 65.8938 27.648 66.6538 28.488C67.4218 29.328 67.8058 30.4 67.8058 31.704C67.8058 33.008 67.4218 34.08 66.6538 34.92ZM61.3258 34.248C61.8698 34.904 62.6298 35.232 63.6058 35.232C64.5818 35.232 65.3418 34.904 65.8858 34.248C66.4298 33.592 66.7018 32.744 66.7018 31.704C66.7018 30.664 66.4298 29.816 65.8858 29.16C65.3418 28.496 64.5818 28.164 63.6058 28.164C62.6298 28.164 61.8698 28.496 61.3258 29.16C60.7818 29.816 60.5098 30.664 60.5098 31.704C60.5098 32.744 60.7818 33.592 61.3258 34.248ZM68.014 28.368V27.42H74.806V28.368H71.95V36H70.87V28.368H68.014ZM75.9022 36V27.42H76.9822V36H75.9022ZM85.5327 34.92C84.7727 35.76 83.7567 36.18 82.4847 36.18C81.2127 36.18 80.1927 35.76 79.4247 34.92C78.6647 34.08 78.2847 33.008 78.2847 31.704C78.2847 30.4 78.6647 29.328 79.4247 28.488C80.1927 27.648 81.2127 27.228 82.4847 27.228C83.7567 27.228 84.7727 27.648 85.5327 28.488C86.3007 29.328 86.6847 30.4 86.6847 31.704C86.6847 33.008 86.3007 34.08 85.5327 34.92ZM80.2047 34.248C80.7487 34.904 81.5087 35.232 82.4847 35.232C83.4607 35.232 84.2207 34.904 84.7647 34.248C85.3087 33.592 85.5807 32.744 85.5807 31.704C85.5807 30.664 85.3087 29.816 84.7647 29.16C84.2207 28.496 83.4607 28.164 82.4847 28.164C81.5087 28.164 80.7487 28.496 80.2047 29.16C79.6607 29.816 79.3887 30.664 79.3887 31.704C79.3887 32.744 79.6607 33.592 80.2047 34.248ZM87.972 36V27.42H89.112L93.024 33.384L93.648 34.488H93.672V27.42H94.68V36H93.576L89.64 30.024L89.004 28.956H88.98V36H87.972ZM99.4123 36.168C98.2603 36.168 97.3723 35.884 96.7483 35.316C96.1323 34.748 95.8003 34.008 95.7523 33.096H96.8083C96.9523 34.568 97.8363 35.304 99.4603 35.304C100.076 35.304 100.568 35.168 100.936 34.896C101.312 34.616 101.5 34.216 101.5 33.696C101.5 33.464 101.456 33.26 101.368 33.084C101.28 32.908 101.172 32.764 101.044 32.652C100.924 32.54 100.74 32.436 100.492 32.34C100.244 32.244 100.012 32.168 99.7963 32.112C99.5883 32.056 99.3003 31.988 98.9323 31.908C98.4923 31.812 98.1283 31.716 97.8403 31.62C97.5523 31.516 97.2643 31.376 96.9763 31.2C96.6883 31.024 96.4723 30.8 96.3283 30.528C96.1923 30.248 96.1243 29.912 96.1243 29.52C96.1243 28.816 96.3883 28.264 96.9163 27.864C97.4523 27.456 98.1603 27.252 99.0403 27.252C100.968 27.252 102.052 28.144 102.292 29.928H101.272C101.192 29.32 100.964 28.864 100.588 28.56C100.212 28.248 99.7043 28.092 99.0643 28.092C98.4723 28.092 98.0003 28.212 97.6483 28.452C97.3043 28.692 97.1323 29.032 97.1323 29.472C97.1323 29.664 97.1683 29.836 97.2403 29.988C97.3203 30.132 97.4203 30.256 97.5403 30.36C97.6683 30.456 97.8323 30.544 98.0323 30.624C98.2403 30.704 98.4443 30.772 98.6443 30.828C98.8443 30.876 99.0883 30.928 99.3763 30.984C99.7763 31.064 100.104 31.14 100.36 31.212C100.616 31.276 100.9 31.376 101.212 31.512C101.524 31.648 101.764 31.804 101.932 31.98C102.108 32.156 102.256 32.388 102.376 32.676C102.504 32.956 102.568 33.284 102.568 33.66C102.568 34.444 102.276 35.06 101.692 35.508C101.116 35.948 100.356 36.168 99.4123 36.168Z" fill="black"/>
</svg>
